<svg width="575" height="208" viewBox="0 0 575 208" fill="none" xmlns="http://www.w3.org/2000/svg">
<path d="M253.875 54.5V152H237.625V54.5H253.875ZM301.125 123.25C301.125 129.583 299.833 135 297.25 139.5C294.667 144 291.25 147.417 287 149.75C282.833 152.083 278.333 153.25 273.5 153.25C268.75 153.25 264.5 152.042 260.75 149.625C257.083 147.208 254.167 143.75 252 139.25C249.833 134.75 248.75 129.417 248.75 123.25C248.75 117 249.833 111.667 252 107.25C254.167 102.75 257.083 99.2917 260.75 96.875C264.5 94.4583 268.75 93.25 273.5 93.25C278.333 93.25 282.833 94.4167 287 96.75C291.25 99.0833 294.667 102.5 297.25 107C299.833 111.417 301.125 116.833 301.125 123.25ZM284.375 123.25C284.375 119.833 283.667 116.875 282.25 114.375C280.833 111.875 278.917 109.958 276.5 108.625C274.167 107.292 271.583 106.625 268.75 106.625C266.333 106.625 263.958 107.292 261.625 108.625C259.375 109.875 257.5 111.75 256 114.25C254.583 116.75 253.875 119.75 253.875 123.25C253.875 126.75 254.583 129.75 256 132.25C257.5 134.75 259.375 136.667 261.625 138C263.958 139.25 266.333 139.875 268.75 139.875C271.583 139.875 274.167 139.208 276.5 137.875C278.917 136.542 280.833 134.625 282.25 132.125C283.667 129.625 284.375 126.667 284.375 123.25ZM366.114 94.5L328.614 179.5H311.989L326.489 146.25L302.614 94.5H320.614L339.114 140.25L331.114 140L349.239 94.5H366.114ZM398.67 153.25C392.42 153.25 386.962 152 382.295 149.5C377.628 147 374.003 143.542 371.42 139.125C368.92 134.625 367.67 129.333 367.67 123.25C367.67 117.083 368.92 111.792 371.42 107.375C374.003 102.875 377.628 99.4167 382.295 97C386.962 94.5 392.462 93.25 398.795 93.25C405.128 93.25 410.503 94.4167 414.92 96.75C419.42 99 422.837 102.333 425.17 106.75C427.503 111.083 428.67 116.333 428.67 122.5C428.67 123.25 428.628 124.042 428.545 124.875C428.545 125.708 428.503 126.375 428.42 126.875H376.92V116.875H414.295L409.92 122.625C410.253 122.125 410.545 121.458 410.795 120.625C411.128 119.708 411.295 118.958 411.295 118.375C411.295 115.542 410.753 113.125 409.67 111.125C408.67 109.125 407.212 107.542 405.295 106.375C403.378 105.208 401.128 104.625 398.545 104.625C395.378 104.625 392.712 105.333 390.545 106.75C388.462 108.083 386.837 110.125 385.67 112.875C384.587 115.542 384.003 118.875 383.92 122.875C383.92 126.708 384.462 129.958 385.545 132.625C386.712 135.292 388.42 137.333 390.67 138.75C392.92 140.167 395.628 140.875 398.795 140.875C402.378 140.875 405.42 140.208 407.92 138.875C410.503 137.458 412.628 135.375 414.295 132.625L428.42 137C425.42 142.417 421.42 146.5 416.42 149.25C411.503 151.917 405.587 153.25 398.67 153.25ZM438.131 156H454.006C454.089 158.5 454.756 160.625 456.006 162.375C457.256 164.208 458.964 165.625 461.131 166.625C463.298 167.625 465.839 168.125 468.756 168.125C471.423 168.125 473.923 167.5 476.256 166.25C478.673 165 480.589 163.083 482.006 160.5C483.506 157.917 484.256 154.667 484.256 150.75V94.5H499.881V150.75C499.881 157.833 498.464 163.667 495.631 168.25C492.881 172.833 489.173 176.167 484.506 178.25C479.839 180.417 474.756 181.5 469.256 181.5C462.589 181.5 457.006 180.417 452.506 178.25C448.006 176.167 444.548 173.167 442.131 169.25C439.798 165.417 438.464 161 438.131 156ZM437.006 122.75C437.006 116.333 438.298 110.958 440.881 106.625C443.464 102.208 446.881 98.875 451.131 96.625C455.381 94.375 459.881 93.25 464.631 93.25C469.464 93.25 473.714 94.4167 477.381 96.75C481.131 99.0833 484.048 102.458 486.131 106.875C488.298 111.208 489.381 116.5 489.381 122.75C489.381 128.917 488.298 134.208 486.131 138.625C484.048 143.042 481.131 146.417 477.381 148.75C473.714 151 469.464 152.125 464.631 152.125C459.881 152.125 455.381 151 451.131 148.75C446.881 146.5 443.464 143.208 440.881 138.875C438.298 134.458 437.006 129.083 437.006 122.75ZM453.756 122.75C453.756 126.167 454.464 129.083 455.881 131.5C457.298 133.833 459.214 135.625 461.631 136.875C464.048 138.125 466.631 138.75 469.381 138.75C471.798 138.75 474.131 138.167 476.381 137C478.714 135.75 480.589 133.958 482.006 131.625C483.506 129.208 484.256 126.25 484.256 122.75C484.256 120.083 483.839 117.75 483.006 115.75C482.173 113.75 481.006 112.083 479.506 110.75C478.089 109.417 476.506 108.417 474.756 107.75C473.006 107 471.214 106.625 469.381 106.625C466.631 106.625 464.048 107.25 461.631 108.5C459.214 109.75 457.298 111.583 455.881 114C454.464 116.333 453.756 119.25 453.756 122.75ZM515.588 54.5H531.838V152H515.588V54.5Z" fill="white"/>
<path d="M148.178 168.521C130.178 175.521 101 171.5 80 167.5" stroke="#6788F3" stroke-width="14" stroke-linecap="square"/>
<path d="M164.127 76.4158C147.627 52.9158 81.1257 55.0096 63.6269 71.9158C46.9139 88.0627 54.3476 124.252 64.1098 157.789C64.9522 160.683 67.3773 162.848 70.3503 163.342C105.219 169.142 128.286 167.413 145.5 165.5C158.835 164.018 173.541 153.482 180.269 148.119C182.61 146.253 183.519 143.194 182.82 140.283C178.152 120.821 172.184 87.8908 164.127 76.4158Z" fill="#FF8B7E"/>
<path d="M122.049 109.352L118.159 86.6628C117.385 82.1469 120.863 78.0216 125.445 78.0216C129.046 78.0216 132.122 80.6159 132.731 84.1648L137.256 110.56C137.531 112.163 138.287 113.644 139.425 114.806L159.502 135.311C160.595 136.427 161.338 137.839 161.638 139.372L162.554 144.054C163.829 150.572 157.065 155.715 151.125 152.745L140.721 147.543C138.776 146.571 136.52 146.432 134.471 147.158L108.85 156.239C103.644 158.084 98.1777 154.223 98.1777 148.699V144.949C98.1777 143.059 98.8469 141.23 100.067 139.786L120.275 115.866C121.798 114.063 122.447 111.678 122.049 109.352Z" fill="white"/>
<circle cx="102.178" cy="109.522" r="10" fill="#323232"/>
<circle cx="153.178" cy="105.522" r="10" fill="#323232"/>
<path d="M147.78 127.521H124.66C122.93 127.521 122.016 129.57 123.171 130.857L136.016 145.17C136.869 146.121 138.384 146.038 139.129 145L149.404 130.688C150.354 129.365 149.409 127.521 147.78 127.521Z" fill="#323232"/>
<path d="M55.0111 74.6417L76.1122 77.8114C80.2546 78.4337 83.2156 82.146 82.9012 86.3231L76.6964 168.764C76.3708 173.089 72.6571 176.367 68.3244 176.153L51.0803 175.302C47.9496 175.147 45.1976 173.179 44.0402 170.266L25.1046 122.609C24.2041 120.342 24.3865 117.789 25.5999 115.674L46.8835 78.5722C48.524 75.7125 51.7508 74.152 55.0111 74.6417Z" fill="#E46551"/>
<path d="M190.761 115.781L177.327 75.8304C176.005 71.8967 171.6 69.9366 167.792 71.5875C164.567 72.9857 162.855 76.5363 163.768 79.9303L182.255 148.627C183.468 153.134 189.874 153.097 191.035 148.577C191.13 148.208 191.178 147.829 191.178 147.448L191.178 118.331C191.178 117.464 191.037 116.603 190.761 115.781Z" fill="#E46551"/>
<path d="M178.298 51.4502C179.633 75.8865 150.396 86.5234 113.724 88.5257C77.0513 90.5279 46.8203 82.9533 45.4962 58.7008C44.1721 34.4483 73.3987 23.6275 110.071 21.6253C146.743 19.6231 176.964 27.0138 178.298 51.4502Z" fill="#FFC97E"/>
<path d="M135.148 47.8881C135.449 53.4017 125.421 54.7899 112.995 55.4683C100.569 56.1467 90.4505 55.8585 90.1495 50.3449C93.1833 46.9185 99.2535 44.9638 113.26 44.0466C127.267 43.1294 132.726 45.4967 135.148 47.8881Z" fill="#323232"/>
</svg>
