<svg width="189" height="189" viewBox="0 0 189 189" fill="none" xmlns="http://www.w3.org/2000/svg">
<g clip-path="url(#clip0_352_1435)">
<path d="M132.178 162.521C114.178 169.521 85 165.5 64 161.5" stroke="#6788F3" stroke-width="14" stroke-linecap="square"/>
<path d="M148.127 70.4158C131.627 46.9158 65.1257 49.0096 47.6269 65.9158C30.9139 82.0627 38.3476 118.252 48.1098 151.789C48.9522 154.683 51.3773 156.848 54.3503 157.342C89.2186 163.142 112.286 161.413 129.5 159.5C142.835 158.018 157.541 147.482 164.269 142.119C166.61 140.253 167.519 137.194 166.82 134.283C162.152 114.821 156.184 81.8908 148.127 70.4158Z" fill="#FF8B7E"/>
<path d="M106.049 103.352L102.159 80.6628C101.385 76.1469 104.863 72.0216 109.445 72.0216C113.046 72.0216 116.122 74.6159 116.731 78.1648L121.256 104.56C121.531 106.163 122.287 107.644 123.425 108.806L143.502 129.311C144.595 130.427 145.338 131.839 145.638 133.372L146.554 138.054C147.829 144.572 141.065 149.715 135.125 146.745L124.721 141.543C122.776 140.571 120.52 140.432 118.471 141.158L92.8503 150.239C87.6435 152.084 82.1777 148.223 82.1777 142.699V138.949C82.1777 137.059 82.8469 135.23 84.0667 133.786L104.275 109.866C105.798 108.063 106.447 105.678 106.049 103.352Z" fill="white"/>
<circle cx="86.1777" cy="103.522" r="10" fill="#323232"/>
<circle cx="137.178" cy="99.5216" r="10" fill="#323232"/>
<path d="M131.78 121.521H108.66C106.93 121.521 106.016 123.57 107.171 124.857L120.016 139.17C120.869 140.121 122.384 140.038 123.129 139L133.404 124.688C134.354 123.365 133.409 121.521 131.78 121.521Z" fill="#323232"/>
<path d="M39.0111 68.6417L60.1122 71.8114C64.2546 72.4337 67.2156 76.146 66.9012 80.3231L60.6964 162.764C60.3708 167.089 56.6571 170.367 52.3244 170.153L35.0803 169.302C31.9496 169.147 29.1976 167.179 28.0402 164.266L9.10456 116.609C8.20411 114.342 8.38649 111.789 9.59993 109.674L30.8835 72.5722C32.524 69.7125 35.7508 68.152 39.0111 68.6417Z" fill="#E46551"/>
<path d="M174.761 109.781L161.327 69.8304C160.005 65.8967 155.6 63.9366 151.792 65.5875C148.567 66.9857 146.855 70.5363 147.768 73.9303L166.255 142.627C167.468 147.134 173.874 147.097 175.035 142.577C175.13 142.208 175.178 141.829 175.178 141.448L175.178 112.331C175.178 111.464 175.037 110.603 174.761 109.781Z" fill="#E46551"/>
<path d="M162.298 45.4502C163.633 69.8865 134.396 80.5234 97.7236 82.5257C61.0513 84.5279 30.8203 76.9533 29.4962 52.7008C28.1721 28.4483 57.3987 17.6275 94.071 15.6253C130.743 13.6231 160.964 21.0138 162.298 45.4502Z" fill="#FFC97E"/>
<path d="M119.148 41.8881C119.449 47.4017 109.421 48.7899 96.9953 49.4683C84.5694 50.1467 74.4505 49.8585 74.1495 44.3449C77.1833 40.9185 83.2535 38.9638 97.2603 38.0466C111.267 37.1294 116.726 39.4967 119.148 41.8881Z" fill="#323232"/>
</g>
<defs>
<clipPath id="clip0_352_1435">
<rect width="189" height="189" fill="white"/>
</clipPath>
</defs>
</svg>
